# xmcd
#
# Track frame offsets: 
#        150
#        14294
#        28240
#        40807
#        55897
#        68132
#        89252
#        108323
#        122498
#        136445
#        153164
#        169041
#        184600
#        198529
#        211601
#        221447
#        235105
#        242436
#        257927
#        272724
#
# Disc length: 4003 seconds
#
# Revision: 0
# Processed by: cddbd v1.5.2PL0 Copyright (c) Steve Scherf et al.
# Submitted via: ExactAudioCopyFreeDBPlugin 1.0
#
DISCID=100fa114
DTITLE=Various Artist - To nejlepsi z ceskeho country
DYEAR=2006
DGENRE=
TTITLE0=Blizko little big hornu
TTITLE1=Ruze z texasu
TTITLE2=Ovecka
TTITLE3=Az na vrcholky hor
TTITLE4=Zelene plane
TTITLE5=Vsichni uz jsou v Mexiku
TTITLE6=Ty jsi ma laska
TTITLE7=Tisic mil
TTITLE8=Frankie Dlouhan
TTITLE9=Poveste ho vejs
TTITLE10=El Paso
TTITLE11=Sbohem lasko
TTITLE12=Zatoka
TTITLE13=Rosa na kolejich
TTITLE14=Jizni kriz
TTITLE15=Jaro
TTITLE16=Stara chajda drnova
TTITLE17=Toulavej
TTITLE18=Poutnik s kytarou
TTITLE19=Jak chcete zit bez koni
EXTD=
EXTT0=
EXTT1=
EXTT2=
EXTT3=
EXTT4=
EXTT5=
EXTT6=
EXTT7=
EXTT8=
EXTT9=
EXTT10=
EXTT11=
EXTT12=
EXTT13=
EXTT14=
EXTT15=
EXTT16=
EXTT17=
EXTT18=
EXTT19=
PLAYORDER=
